<mxfile host="app.diagrams.net" modified="2023-03-06T05:00:06.635Z" agent="5.0 (Windows NT 6.1; Win64; x64) AppleWebKit/537.36 (KHTML, like Gecko) Chrome/76.0.3809.100 Safari/537.36" etag="N-2WYI4bRhr5vNG4I5j0" version="20.8.5" type="github">
  <diagram id="rKZNCimsQ0ubejQzTRBA" name="Halaman-1">
    <mxGraphModel dx="1272" dy="821" grid="1" gridSize="10" guides="1" tooltips="1" connect="1" arrows="1" fold="1" page="1" pageScale="1" pageWidth="1654" pageHeight="2336" math="0" shadow="0">
      <root>
        <mxCell id="0" />
        <mxCell id="1" parent="0" />
        <mxCell id="eQdXDSU0h9lNufqp-mvz-119" value="" style="endArrow=none;html=1;rounded=0;exitX=0.5;exitY=0;exitDx=0;exitDy=0;entryX=1;entryY=1;entryDx=0;entryDy=0;" edge="1" parent="1" source="eQdXDSU0h9lNufqp-mvz-120" target="eQdXDSU0h9lNufqp-mvz-122">
          <mxGeometry width="50" height="50" relative="1" as="geometry">
            <mxPoint x="245" y="210" as="sourcePoint" />
            <mxPoint x="180" y="160" as="targetPoint" />
          </mxGeometry>
        </mxCell>
        <mxCell id="eQdXDSU0h9lNufqp-mvz-120" value="ADMINISTRATOR" style="rounded=0;whiteSpace=wrap;html=1;" vertex="1" parent="1">
          <mxGeometry x="180" y="210" width="120" height="60" as="geometry" />
        </mxCell>
        <mxCell id="eQdXDSU0h9lNufqp-mvz-121" value="" style="endArrow=none;html=1;rounded=0;exitX=0.5;exitY=0;exitDx=0;exitDy=0;entryX=0.5;entryY=1;entryDx=0;entryDy=0;" edge="1" parent="1" source="eQdXDSU0h9lNufqp-mvz-120" target="eQdXDSU0h9lNufqp-mvz-123">
          <mxGeometry width="50" height="50" relative="1" as="geometry">
            <mxPoint x="260" y="200" as="sourcePoint" />
            <mxPoint x="320" y="160" as="targetPoint" />
          </mxGeometry>
        </mxCell>
        <mxCell id="eQdXDSU0h9lNufqp-mvz-122" value="login" style="ellipse;whiteSpace=wrap;html=1;" vertex="1" parent="1">
          <mxGeometry x="100" y="140" width="80" height="40" as="geometry" />
        </mxCell>
        <mxCell id="eQdXDSU0h9lNufqp-mvz-123" value="CRUD data konsumen" style="ellipse;whiteSpace=wrap;html=1;" vertex="1" parent="1">
          <mxGeometry x="160" y="40" width="100" height="40" as="geometry" />
        </mxCell>
        <mxCell id="eQdXDSU0h9lNufqp-mvz-124" value="logout" style="ellipse;whiteSpace=wrap;html=1;" vertex="1" parent="1">
          <mxGeometry x="105" y="80" width="85" height="40" as="geometry" />
        </mxCell>
        <mxCell id="eQdXDSU0h9lNufqp-mvz-125" value="Mengelola" style="rhombus;whiteSpace=wrap;html=1;" vertex="1" parent="1">
          <mxGeometry x="420" y="215" width="110" height="55" as="geometry" />
        </mxCell>
        <mxCell id="eQdXDSU0h9lNufqp-mvz-126" value="" style="endArrow=none;html=1;rounded=0;exitX=1;exitY=0.5;exitDx=0;exitDy=0;" edge="1" parent="1" source="eQdXDSU0h9lNufqp-mvz-125">
          <mxGeometry width="50" height="50" relative="1" as="geometry">
            <mxPoint x="520" y="240" as="sourcePoint" />
            <mxPoint x="630" y="243" as="targetPoint" />
          </mxGeometry>
        </mxCell>
        <mxCell id="eQdXDSU0h9lNufqp-mvz-127" value="" style="endArrow=none;html=1;rounded=0;entryX=0;entryY=0.5;entryDx=0;entryDy=0;" edge="1" parent="1" target="eQdXDSU0h9lNufqp-mvz-125">
          <mxGeometry width="50" height="50" relative="1" as="geometry">
            <mxPoint x="300" y="243" as="sourcePoint" />
            <mxPoint x="360" y="190" as="targetPoint" />
            <Array as="points" />
          </mxGeometry>
        </mxCell>
        <mxCell id="eQdXDSU0h9lNufqp-mvz-128" value="PIMPINAN" style="rounded=0;whiteSpace=wrap;html=1;" vertex="1" parent="1">
          <mxGeometry x="630" y="210" width="120" height="60" as="geometry" />
        </mxCell>
        <mxCell id="eQdXDSU0h9lNufqp-mvz-129" value="Memiliki tugas" style="rhombus;whiteSpace=wrap;html=1;" vertex="1" parent="1">
          <mxGeometry x="1055" y="210" width="110" height="60" as="geometry" />
        </mxCell>
        <mxCell id="eQdXDSU0h9lNufqp-mvz-130" value="" style="endArrow=none;html=1;rounded=0;entryX=0;entryY=0.5;entryDx=0;entryDy=0;" edge="1" parent="1" target="eQdXDSU0h9lNufqp-mvz-129">
          <mxGeometry width="50" height="50" relative="1" as="geometry">
            <mxPoint x="750" y="240" as="sourcePoint" />
            <mxPoint x="800" y="190" as="targetPoint" />
          </mxGeometry>
        </mxCell>
        <mxCell id="eQdXDSU0h9lNufqp-mvz-131" value="" style="endArrow=none;html=1;rounded=0;exitX=0.5;exitY=0;exitDx=0;exitDy=0;entryX=0.5;entryY=1;entryDx=0;entryDy=0;" edge="1" parent="1" source="eQdXDSU0h9lNufqp-mvz-132" target="eQdXDSU0h9lNufqp-mvz-129">
          <mxGeometry width="50" height="50" relative="1" as="geometry">
            <mxPoint x="1110" y="350" as="sourcePoint" />
            <mxPoint x="1105" y="280" as="targetPoint" />
            <Array as="points" />
          </mxGeometry>
        </mxCell>
        <mxCell id="eQdXDSU0h9lNufqp-mvz-132" value="PETUGAS" style="rounded=0;whiteSpace=wrap;html=1;" vertex="1" parent="1">
          <mxGeometry x="1050" y="350" width="120" height="60" as="geometry" />
        </mxCell>
        <mxCell id="eQdXDSU0h9lNufqp-mvz-133" value="" style="endArrow=none;html=1;rounded=0;exitX=1;exitY=0.5;exitDx=0;exitDy=0;entryX=0;entryY=0.34;entryDx=0;entryDy=0;entryPerimeter=0;" edge="1" parent="1" source="eQdXDSU0h9lNufqp-mvz-132" target="eQdXDSU0h9lNufqp-mvz-136">
          <mxGeometry width="50" height="50" relative="1" as="geometry">
            <mxPoint x="1180" y="430" as="sourcePoint" />
            <mxPoint x="1210" y="430" as="targetPoint" />
          </mxGeometry>
        </mxCell>
        <mxCell id="eQdXDSU0h9lNufqp-mvz-134" value="" style="endArrow=none;html=1;rounded=0;exitX=1;exitY=0.5;exitDx=0;exitDy=0;entryX=0.04;entryY=0.727;entryDx=0;entryDy=0;entryPerimeter=0;" edge="1" parent="1" source="eQdXDSU0h9lNufqp-mvz-132" target="eQdXDSU0h9lNufqp-mvz-137">
          <mxGeometry width="50" height="50" relative="1" as="geometry">
            <mxPoint x="1170" y="400" as="sourcePoint" />
            <mxPoint x="1230" y="380" as="targetPoint" />
          </mxGeometry>
        </mxCell>
        <mxCell id="eQdXDSU0h9lNufqp-mvz-135" value="" style="endArrow=none;html=1;rounded=0;entryX=0.5;entryY=1;entryDx=0;entryDy=0;exitX=1;exitY=0.5;exitDx=0;exitDy=0;" edge="1" parent="1" source="eQdXDSU0h9lNufqp-mvz-132" target="eQdXDSU0h9lNufqp-mvz-138">
          <mxGeometry width="50" height="50" relative="1" as="geometry">
            <mxPoint x="1170" y="370" as="sourcePoint" />
            <mxPoint x="1210" y="330" as="targetPoint" />
          </mxGeometry>
        </mxCell>
        <mxCell id="eQdXDSU0h9lNufqp-mvz-136" value="CRUD data konsumen" style="ellipse;whiteSpace=wrap;html=1;" vertex="1" parent="1">
          <mxGeometry x="1260" y="380" width="100" height="50" as="geometry" />
        </mxCell>
        <mxCell id="eQdXDSU0h9lNufqp-mvz-137" value="logout" style="ellipse;whiteSpace=wrap;html=1;" vertex="1" parent="1">
          <mxGeometry x="1240" y="320" width="100" height="50" as="geometry" />
        </mxCell>
        <mxCell id="eQdXDSU0h9lNufqp-mvz-138" value="login" style="ellipse;whiteSpace=wrap;html=1;" vertex="1" parent="1">
          <mxGeometry x="1180" y="270" width="100" height="50" as="geometry" />
        </mxCell>
        <mxCell id="eQdXDSU0h9lNufqp-mvz-139" value="" style="endArrow=none;html=1;rounded=0;exitX=0.5;exitY=0;exitDx=0;exitDy=0;" edge="1" parent="1" source="eQdXDSU0h9lNufqp-mvz-140">
          <mxGeometry width="50" height="50" relative="1" as="geometry">
            <mxPoint x="690" y="340" as="sourcePoint" />
            <mxPoint x="690" y="270" as="targetPoint" />
          </mxGeometry>
        </mxCell>
        <mxCell id="eQdXDSU0h9lNufqp-mvz-140" value="Melakukan" style="rhombus;whiteSpace=wrap;html=1;" vertex="1" parent="1">
          <mxGeometry x="637.5" y="340" width="105" height="60" as="geometry" />
        </mxCell>
        <mxCell id="eQdXDSU0h9lNufqp-mvz-141" value="" style="endArrow=none;html=1;rounded=0;exitX=0.96;exitY=0.7;exitDx=0;exitDy=0;exitPerimeter=0;entryX=0;entryY=0.5;entryDx=0;entryDy=0;" edge="1" parent="1" source="eQdXDSU0h9lNufqp-mvz-146" target="eQdXDSU0h9lNufqp-mvz-140">
          <mxGeometry width="50" height="50" relative="1" as="geometry">
            <mxPoint x="560" y="360" as="sourcePoint" />
            <mxPoint x="630" y="370" as="targetPoint" />
            <Array as="points" />
          </mxGeometry>
        </mxCell>
        <mxCell id="eQdXDSU0h9lNufqp-mvz-142" value="" style="endArrow=none;html=1;rounded=0;entryX=0;entryY=0.5;entryDx=0;entryDy=0;exitX=0.964;exitY=0.3;exitDx=0;exitDy=0;exitPerimeter=0;" edge="1" parent="1" source="eQdXDSU0h9lNufqp-mvz-145" target="eQdXDSU0h9lNufqp-mvz-140">
          <mxGeometry width="50" height="50" relative="1" as="geometry">
            <mxPoint x="580" y="430" as="sourcePoint" />
            <mxPoint x="630" y="390" as="targetPoint" />
            <Array as="points" />
          </mxGeometry>
        </mxCell>
        <mxCell id="eQdXDSU0h9lNufqp-mvz-143" value="" style="endArrow=none;html=1;rounded=0;exitX=1;exitY=0.5;exitDx=0;exitDy=0;entryX=0.03;entryY=0.675;entryDx=0;entryDy=0;entryPerimeter=0;" edge="1" parent="1" source="eQdXDSU0h9lNufqp-mvz-140" target="eQdXDSU0h9lNufqp-mvz-144">
          <mxGeometry width="50" height="50" relative="1" as="geometry">
            <mxPoint x="740" y="380" as="sourcePoint" />
            <mxPoint x="790" y="340" as="targetPoint" />
          </mxGeometry>
        </mxCell>
        <mxCell id="eQdXDSU0h9lNufqp-mvz-144" value="entri transaksi order" style="ellipse;whiteSpace=wrap;html=1;" vertex="1" parent="1">
          <mxGeometry x="780" y="330" width="100" height="40" as="geometry" />
        </mxCell>
        <mxCell id="eQdXDSU0h9lNufqp-mvz-145" value="logout" style="ellipse;whiteSpace=wrap;html=1;" vertex="1" parent="1">
          <mxGeometry x="480" y="410" width="110" height="40" as="geometry" />
        </mxCell>
        <mxCell id="eQdXDSU0h9lNufqp-mvz-146" value="login&amp;nbsp;" style="ellipse;whiteSpace=wrap;html=1;" vertex="1" parent="1">
          <mxGeometry x="485" y="320" width="100" height="40" as="geometry" />
        </mxCell>
        <mxCell id="eQdXDSU0h9lNufqp-mvz-147" value="KONSUMEN" style="rounded=0;whiteSpace=wrap;html=1;" vertex="1" parent="1">
          <mxGeometry x="630" y="490" width="120" height="60" as="geometry" />
        </mxCell>
        <mxCell id="eQdXDSU0h9lNufqp-mvz-148" value="lihat history order" style="ellipse;whiteSpace=wrap;html=1;" vertex="1" parent="1">
          <mxGeometry x="635" y="590" width="110" height="40" as="geometry" />
        </mxCell>
        <mxCell id="eQdXDSU0h9lNufqp-mvz-149" value="" style="endArrow=none;html=1;rounded=0;entryX=0.295;entryY=0.008;entryDx=0;entryDy=0;entryPerimeter=0;exitX=1;exitY=0.5;exitDx=0;exitDy=0;" edge="1" parent="1" source="eQdXDSU0h9lNufqp-mvz-132" target="eQdXDSU0h9lNufqp-mvz-151">
          <mxGeometry width="50" height="50" relative="1" as="geometry">
            <mxPoint x="1170" y="400" as="sourcePoint" />
            <mxPoint x="1200" y="470" as="targetPoint" />
          </mxGeometry>
        </mxCell>
        <mxCell id="eQdXDSU0h9lNufqp-mvz-150" value="" style="endArrow=none;html=1;rounded=0;entryX=0;entryY=0;entryDx=0;entryDy=0;exitX=1;exitY=0.5;exitDx=0;exitDy=0;" edge="1" parent="1" source="eQdXDSU0h9lNufqp-mvz-132" target="eQdXDSU0h9lNufqp-mvz-152">
          <mxGeometry width="50" height="50" relative="1" as="geometry">
            <mxPoint x="1180" y="390" as="sourcePoint" />
            <mxPoint x="1220" y="430" as="targetPoint" />
            <Array as="points" />
          </mxGeometry>
        </mxCell>
        <mxCell id="eQdXDSU0h9lNufqp-mvz-151" value="lihat histiry order" style="ellipse;whiteSpace=wrap;html=1;" vertex="1" parent="1">
          <mxGeometry x="1180" y="490" width="100" height="50" as="geometry" />
        </mxCell>
        <mxCell id="eQdXDSU0h9lNufqp-mvz-152" value="entri transaksi order" style="ellipse;whiteSpace=wrap;html=1;" vertex="1" parent="1">
          <mxGeometry x="1210" y="430" width="100" height="50" as="geometry" />
        </mxCell>
        <mxCell id="eQdXDSU0h9lNufqp-mvz-153" value="" style="endArrow=none;html=1;rounded=0;exitX=0.5;exitY=0;exitDx=0;exitDy=0;entryX=0.733;entryY=0.958;entryDx=0;entryDy=0;entryPerimeter=0;" edge="1" parent="1" source="eQdXDSU0h9lNufqp-mvz-120" target="eQdXDSU0h9lNufqp-mvz-124">
          <mxGeometry width="50" height="50" relative="1" as="geometry">
            <mxPoint x="245" y="212.5" as="sourcePoint" />
            <mxPoint x="160" y="120" as="targetPoint" />
          </mxGeometry>
        </mxCell>
        <mxCell id="eQdXDSU0h9lNufqp-mvz-154" value="" style="endArrow=none;html=1;rounded=0;exitX=0.5;exitY=0;exitDx=0;exitDy=0;entryX=0.5;entryY=1;entryDx=0;entryDy=0;" edge="1" parent="1" source="eQdXDSU0h9lNufqp-mvz-147" target="eQdXDSU0h9lNufqp-mvz-140">
          <mxGeometry width="50" height="50" relative="1" as="geometry">
            <mxPoint x="637.5" y="450" as="sourcePoint" />
            <mxPoint x="688" y="400" as="targetPoint" />
            <Array as="points" />
          </mxGeometry>
        </mxCell>
        <mxCell id="eQdXDSU0h9lNufqp-mvz-155" value="" style="endArrow=none;html=1;rounded=0;" edge="1" parent="1" source="eQdXDSU0h9lNufqp-mvz-148">
          <mxGeometry width="50" height="50" relative="1" as="geometry">
            <mxPoint x="640" y="600" as="sourcePoint" />
            <mxPoint x="690" y="550" as="targetPoint" />
          </mxGeometry>
        </mxCell>
        <mxCell id="eQdXDSU0h9lNufqp-mvz-156" value="" style="endArrow=none;html=1;rounded=0;entryX=0.315;entryY=1.008;entryDx=0;entryDy=0;entryPerimeter=0;" edge="1" parent="1" target="eQdXDSU0h9lNufqp-mvz-161">
          <mxGeometry width="50" height="50" relative="1" as="geometry">
            <mxPoint x="240" y="210" as="sourcePoint" />
            <mxPoint x="340" y="110" as="targetPoint" />
          </mxGeometry>
        </mxCell>
        <mxCell id="eQdXDSU0h9lNufqp-mvz-157" value="" style="endArrow=none;html=1;rounded=0;entryX=0.5;entryY=1;entryDx=0;entryDy=0;" edge="1" parent="1" target="eQdXDSU0h9lNufqp-mvz-160">
          <mxGeometry width="50" height="50" relative="1" as="geometry">
            <mxPoint x="240" y="210" as="sourcePoint" />
            <mxPoint x="260" y="120" as="targetPoint" />
          </mxGeometry>
        </mxCell>
        <mxCell id="eQdXDSU0h9lNufqp-mvz-158" value="" style="endArrow=none;html=1;rounded=0;" edge="1" parent="1" target="eQdXDSU0h9lNufqp-mvz-159">
          <mxGeometry width="50" height="50" relative="1" as="geometry">
            <mxPoint x="240" y="210" as="sourcePoint" />
            <mxPoint x="330" y="180" as="targetPoint" />
          </mxGeometry>
        </mxCell>
        <mxCell id="eQdXDSU0h9lNufqp-mvz-159" value="CRUD data jenis pembayaran" style="ellipse;whiteSpace=wrap;html=1;" vertex="1" parent="1">
          <mxGeometry x="320" y="120" width="110" height="40" as="geometry" />
        </mxCell>
        <mxCell id="eQdXDSU0h9lNufqp-mvz-160" value="CRUD data petugas" style="ellipse;whiteSpace=wrap;html=1;" vertex="1" parent="1">
          <mxGeometry x="230" y="80" width="90" height="40" as="geometry" />
        </mxCell>
        <mxCell id="eQdXDSU0h9lNufqp-mvz-161" value="CRUD data jenis layanan" style="ellipse;whiteSpace=wrap;html=1;" vertex="1" parent="1">
          <mxGeometry x="320" y="50" width="110" height="40" as="geometry" />
        </mxCell>
        <mxCell id="eQdXDSU0h9lNufqp-mvz-162" value="" style="endArrow=none;html=1;rounded=0;exitX=0.341;exitY=0;exitDx=0;exitDy=0;exitPerimeter=0;" edge="1" parent="1" source="eQdXDSU0h9lNufqp-mvz-165">
          <mxGeometry width="50" height="50" relative="1" as="geometry">
            <mxPoint x="270" y="330" as="sourcePoint" />
            <mxPoint x="235" y="270" as="targetPoint" />
          </mxGeometry>
        </mxCell>
        <mxCell id="eQdXDSU0h9lNufqp-mvz-163" value="" style="endArrow=none;html=1;rounded=0;exitX=0.5;exitY=0;exitDx=0;exitDy=0;" edge="1" parent="1" source="eQdXDSU0h9lNufqp-mvz-166">
          <mxGeometry width="50" height="50" relative="1" as="geometry">
            <mxPoint x="220" y="370" as="sourcePoint" />
            <mxPoint x="235" y="270" as="targetPoint" />
          </mxGeometry>
        </mxCell>
        <mxCell id="eQdXDSU0h9lNufqp-mvz-164" value="" style="endArrow=none;html=1;rounded=0;exitX=0.5;exitY=0;exitDx=0;exitDy=0;" edge="1" parent="1" source="eQdXDSU0h9lNufqp-mvz-167">
          <mxGeometry width="50" height="50" relative="1" as="geometry">
            <mxPoint x="185" y="320" as="sourcePoint" />
            <mxPoint x="235" y="270" as="targetPoint" />
          </mxGeometry>
        </mxCell>
        <mxCell id="eQdXDSU0h9lNufqp-mvz-165" value="generate laporan" style="ellipse;whiteSpace=wrap;html=1;" vertex="1" parent="1">
          <mxGeometry x="250" y="325" width="90" height="40" as="geometry" />
        </mxCell>
        <mxCell id="eQdXDSU0h9lNufqp-mvz-166" value="lihat history order" style="ellipse;whiteSpace=wrap;html=1;" vertex="1" parent="1">
          <mxGeometry x="170" y="370" width="110" height="40" as="geometry" />
        </mxCell>
        <mxCell id="eQdXDSU0h9lNufqp-mvz-167" value="entri transaksi order" style="ellipse;whiteSpace=wrap;html=1;" vertex="1" parent="1">
          <mxGeometry x="120" y="320" width="90" height="40" as="geometry" />
        </mxCell>
      </root>
    </mxGraphModel>
  </diagram>
</mxfile>
